<svg xmlns="http://www.w3.org/2000/svg" width="131.979" height="37.479" viewBox="0 0 131.979 37.479">
  <g id="Groupe_28" data-name="Groupe 28" transform="translate(-1757.5 -83.782)">
    <g id="Groupe_27" data-name="Groupe 27" transform="translate(239 20.021)" opacity="0.61">
      <line id="Ligne_2" data-name="Ligne 2" x2="48" transform="translate(1518.5 70.5)" fill="none" stroke="#fff" stroke-width="3"/>
      <line id="Ligne_3" data-name="Ligne 3" x2="48" transform="translate(1518.5 82.5)" fill="none" stroke="#fff" stroke-width="3"/>
      <line id="Ligne_4" data-name="Ligne 4" x2="48" transform="translate(1518.5 94.5)" fill="none" stroke="#fff" stroke-width="3"/>
    </g>
    <path id="Tracé_35" data-name="Tracé 35" d="M-1145.595,2001.919h-2.651a12.314,12.314,0,0,0-1.732-4.134l.009-.013,1.875-1.877a1.068,1.068,0,0,0,0-1.51l-3.26-3.26a1.067,1.067,0,0,0-1.509,0l-1.895,1.874a15.2,15.2,0,0,0-4.162-1.693v-2.663a1.086,1.086,0,0,0-1.025-1.128h-4.61a1.229,1.229,0,0,0-1.187,1.128v2.65a13.406,13.406,0,0,0-4.066,1.731l.021-.009-1.859-1.874a1.058,1.058,0,0,0-1.5,0l-3.256,3.26a1.067,1.067,0,0,0,0,1.509l1.875,1.87a15.039,15.039,0,0,0-1.692,4.138h-2.663a1.114,1.114,0,0,0-1.114,1.074v4.61a1.043,1.043,0,0,0,1.114.987h2.651a12.5,12.5,0,0,0,1.731,4.166l-.009.029-1.874,1.884a1.073,1.073,0,0,0,0,1.514l3.26,3.262a1.067,1.067,0,0,0,1.509,0l1.8-1.874a12.972,12.972,0,0,0,4.069,1.694v2.663a1.2,1.2,0,0,0,1.212,1.064h4.61a1.01,1.01,0,0,0,1-1.064v-2.651a15.8,15.8,0,0,0,4.159-1.731l.025.009,1.883,1.874a1.071,1.071,0,0,0,1.513,0l3.262-3.26a1.066,1.066,0,0,0,0-1.509l-1.874-1.9a15.239,15.239,0,0,0,1.693-4.169h2.663a1.031,1.031,0,0,0,1.079-1.011v-4.61A1.063,1.063,0,0,0-1145.595,2001.919Zm-19.318,9.469c-.064-.028-.128-.057-.191-.088q-.29-.14-.564-.306-.137-.083-.269-.173t-.26-.185l-.127-.1a6.705,6.705,0,0,1-.683-.617,6.675,6.675,0,0,1-.592-.706q-.108-.149-.209-.3a6.616,6.616,0,0,1-.523-.983,6.614,6.614,0,0,1-.534-2.612,6.622,6.622,0,0,1,2.175-4.914q.177-.161.365-.308l.127-.1q.128-.1.26-.185a6.618,6.618,0,0,1,.834-.479q.145-.07.294-.133a6.617,6.617,0,0,1,2.584-.522,6.611,6.611,0,0,1,3.022.726q.143.073.282.153.209.12.407.254.133.089.26.185l.126.1q.126.1.246.2.181.157.35.325.112.113.22.231a6.614,6.614,0,0,1,.5.621q.093.13.179.265t.166.274q.12.209.225.426a6.612,6.612,0,0,1,.655,2.878,6.649,6.649,0,0,1-.209,1.659q-.041.159-.089.315c-.049.156-.1.309-.162.46q-.06.151-.126.3c-.03.065-.061.13-.092.194q-.094.193-.2.378-.08.139-.166.274c-.046.072-.093.142-.142.211s-.086.123-.131.183c-.032.043-.064.085-.1.127q-.1.125-.2.246l-.106.119q-.107.118-.22.23c-.038.037-.076.075-.114.111q-.231.22-.482.417-.062.049-.126.1-.128.1-.26.185t-.269.173l-.138.082q-.139.08-.282.153a6.611,6.611,0,0,1-3.022.726,6.619,6.619,0,0,1-2.478-.478Q-1164.809,2011.434-1164.913,2011.388Z" transform="translate(3032.995 -1902.733)" fill="none" stroke="#fff" stroke-miterlimit="10" stroke-width="2" opacity="0.61"/>
  </g>
</svg>
