<svg id="Groupe_23" data-name="Groupe 23" xmlns="http://www.w3.org/2000/svg" width="36.046" height="36.136" viewBox="0 0 36.046 36.136">
  <path id="Tracé_33" data-name="Tracé 33" d="M745.976,405.205l2.59-9.666a17.889,17.889,0,1,1,7.125,7.063Zm10.2-6.225.611.366a14.526,14.526,0,1,0-4.968-4.924l.375.616-1.446,5.4Z" transform="translate(-745.976 -369.069)" fill="#757575"/>
  <path id="Tracé_34" data-name="Tracé 34" d="M770.615,389.2a3,3,0,0,0-2.556-.577c-.663.273-1.088,1.311-1.518,1.842a.639.639,0,0,1-.823.179,11.576,11.576,0,0,1-5.777-4.949.708.708,0,0,1,.09-.967,3.908,3.908,0,0,0,1.049-1.7A3.725,3.725,0,0,0,760.61,381a4.79,4.79,0,0,0-1.489-2.244,2.04,2.04,0,0,0-2.215.329,4.5,4.5,0,0,0-1.56,3.563,5.068,5.068,0,0,0,.14,1.132,9.355,9.355,0,0,0,1.086,2.5,19.969,19.969,0,0,0,1.132,1.722,17.486,17.486,0,0,0,4.912,4.56,14.8,14.8,0,0,0,3.063,1.456,6.8,6.8,0,0,0,3.565.564,4.315,4.315,0,0,0,3.234-2.405,2.11,2.11,0,0,0,.15-1.228C772.443,390.108,771.3,389.607,770.615,389.2Z" transform="translate(-745.776 -368.867)" fill="#757575" fill-rule="evenodd"/>
</svg>
