<svg id="Groupe_22" data-name="Groupe 22" xmlns="http://www.w3.org/2000/svg" width="36.134" height="36.136" viewBox="0 0 36.134 36.136">
  <g id="Groupe_21" data-name="Groupe 21">
    <path id="Tracé_28" data-name="Tracé 28" d="M773.034,157.011a2.119,2.119,0,1,0,2.118,2.118A2.119,2.119,0,0,0,773.034,157.011Z" transform="translate(-745.401 -150.558)" fill="#757575"/>
    <path id="Tracé_29" data-name="Tracé 29" d="M763.955,159.671a8.9,8.9,0,1,0,8.9,8.9A8.909,8.909,0,0,0,763.955,159.671Zm0,14.6a5.7,5.7,0,1,1,5.7-5.7A5.708,5.708,0,0,1,763.955,174.271Z" transform="translate(-745.739 -150.502)" fill="#757575"/>
    <path id="Tracé_30" data-name="Tracé 30" d="M771.212,186.829H756.786a10.865,10.865,0,0,1-10.853-10.854V161.548a10.866,10.866,0,0,1,10.853-10.855h14.426a10.866,10.866,0,0,1,10.854,10.855v14.428A10.866,10.866,0,0,1,771.212,186.829Zm-14.426-32.735a7.462,7.462,0,0,0-7.455,7.454v14.428a7.463,7.463,0,0,0,7.455,7.455h14.426a7.463,7.463,0,0,0,7.456-7.455V161.548a7.462,7.462,0,0,0-7.456-7.454Z" transform="translate(-745.933 -150.693)" fill="#757575"/>
  </g>
</svg>
