<svg xmlns="http://www.w3.org/2000/svg" width="43.904" height="36.136" viewBox="0 0 43.904 36.136">
  <path id="Tracé_32" data-name="Tracé 32" d="M785.852,209.619a18.179,18.179,0,0,1-4.44,1.265c.714-.121,1.762-1.412,2.183-1.935a8.133,8.133,0,0,0,1.474-2.687c.039-.077.066-.174-.009-.231a.255.255,0,0,0-.235.019,22.6,22.6,0,0,1-5.266,2.014.351.351,0,0,1-.363-.1,4.269,4.269,0,0,0-.46-.47,9.307,9.307,0,0,0-2.55-1.564,8.892,8.892,0,0,0-3.912-.629,9.34,9.34,0,0,0-3.709,1.048,9.578,9.578,0,0,0-2.995,2.445,9.193,9.193,0,0,0-1.787,3.581,9.71,9.71,0,0,0-.095,3.78c.03.211.01.239-.182.211-7.23-1.076-13.223-3.663-18.087-9.207-.211-.241-.326-.241-.5.018-2.129,3.192-1.1,8.318,1.564,10.837.354.336.719.672,1.111.978a9.227,9.227,0,0,1-3.491-.978c-.21-.134-.317-.057-.336.183a5.632,5.632,0,0,0,.058,1.036,9.277,9.277,0,0,0,5.717,7.4,5.5,5.5,0,0,0,1.158.354,10.327,10.327,0,0,1-3.422.105c-.249-.048-.344.078-.249.317,1.505,4.106,4.757,5.328,7.193,6.024.326.056.652.056.979.134-.02.029-.04.029-.059.057-.807,1.232-3.607,2.148-4.913,2.6a17.579,17.579,0,0,1-7.46.955c-.4-.059-.485-.054-.594,0s-.014.164.115.268c.509.336,1.026.634,1.553.922a24.69,24.69,0,0,0,4.987,1.995c8.963,2.475,19.057.656,25.786-6.031,5.285-5.25,7.138-12.491,7.138-19.74,0-.284.335-.44.533-.59a17.4,17.4,0,0,0,3.51-3.65,1.112,1.112,0,0,0,.233-.7v-.038C786.033,209.5,786.03,209.538,785.852,209.619Z" transform="translate(-742.129 -205.288)" fill="#757575"/>
</svg>
